<svg xmlns="http://www.w3.org/2000/svg" width="280" height="256">
    <style>
        line, path, circle, rect, polygon{stroke:black;stroke-width:2;stroke-opacity:1;fill-opacity:1;stroke-linecap:round;stroke-linejoin:miter;}text{font-family:Monospace;font-size:14px;}rect.backdrop{stroke:none;fill:white;}.broken{stroke-dasharray:8;}.filled{fill:black;}.bg_filled{fill:white;}.nofill{fill:white;}.end_marked_arrow{marker-end:url(#arrow);}.start_marked_arrow{marker-start:url(#arrow);}.end_marked_diamond{marker-end:url(#diamond);}.start_marked_diamond{marker-start:url(#diamond);}.end_marked_circle{marker-end:url(#circle);}.start_marked_circle{marker-start:url(#circle);}.end_marked_open_circle{marker-end:url(#open_circle);}.start_marked_open_circle{marker-start:url(#open_circle);}.end_marked_big_open_circle{marker-end:url(#big_open_circle);}.start_marked_big_open_circle{marker-start:url(#big_open_circle);}
        <!--separator-->
        
    </style>
    <defs>
        <marker id="arrow" viewBox="-2 -2 8 8" refX="4" refY="2" markerWidth="7" markerHeight="7" orient="auto-start-reverse">
            <polygon points="0,0 0,4 4,2 0,0"></polygon>
        </marker>
        <marker id="diamond" viewBox="-2 -2 8 8" refX="4" refY="2" markerWidth="7" markerHeight="7" orient="auto-start-reverse">
            <polygon points="0,2 2,0 4,2 2,4 0,2"></polygon>
        </marker>
        <marker id="circle" viewBox="0 0 8 8" refX="4" refY="4" markerWidth="7" markerHeight="7" orient="auto-start-reverse">
            <circle cx="4" cy="4" r="2" class="filled"></circle>
        </marker>
        <marker id="open_circle" viewBox="0 0 8 8" refX="4" refY="4" markerWidth="7" markerHeight="7" orient="auto-start-reverse">
            <circle cx="4" cy="4" r="2" class="bg_filled"></circle>
        </marker>
        <marker id="big_open_circle" viewBox="0 0 8 8" refX="4" refY="4" markerWidth="7" markerHeight="7" orient="auto-start-reverse">
            <circle cx="4" cy="4" r="3" class="bg_filled"></circle>
        </marker>
    </defs>
    <rect class="backdrop" x="0" y="0" width="280" height="256"></rect>
    <circle cx="4" cy="24" r="3" class="nofill"></circle>
    <text x="74" y="28" >elem</text>
    <text x="154" y="28" >;</text>
    <text x="202" y="28" >n</text>
    <circle cx="268" cy="24" r="3" class="nofill"></circle>
    <text x="98" y="92" >x</text>
    <text x="98" y="140" >,</text>
    <text x="98" y="204" >x</text>
    <text x="154" y="204" >,</text>
    <g>
        <line x1="60" y1="8" x2="116" y2="8" class="solid"></line>
        <line x1="60" y1="8" x2="60" y2="40" class="solid"></line>
        <line x1="116" y1="8" x2="116" y2="40" class="solid"></line>
        <line x1="8" y1="24" x2="60" y2="24" class="solid"></line>
        <line x1="28" y1="24" x2="28" y2="196" class="solid"></line>
        <line x1="116" y1="24" x2="136" y2="24" class="solid"></line>
        <line x1="60" y1="40" x2="116" y2="40" class="solid"></line>
        <path d="M 28,196 A 4,4 0,0,0 32,200" class="nofill"></path>
        <line x1="84" y1="72" x2="116" y2="72" class="solid"></line>
        <line x1="84" y1="72" x2="84" y2="104" class="solid"></line>
        <line x1="116" y1="72" x2="116" y2="104" class="solid"></line>
        <line x1="28" y1="88" x2="84" y2="88" class="solid"></line>
        <line x1="60" y1="88" x2="60" y2="132" class="solid"></line>
        <line x1="116" y1="88" x2="244" y2="88" class="solid"></line>
        <line x1="140" y1="88" x2="140" y2="132" class="solid"></line>
        <line x1="84" y1="104" x2="116" y2="104" class="solid"></line>
        <path d="M 60,132 A 4,4 0,0,0 64,136" class="nofill"></path>
        <line x1="64" y1="136" x2="80" y2="136" class="solid"></line>
        <line x1="120" y1="136" x2="136" y2="136" class="solid"></line>
        <path d="M 140,132 A 4,4 0,0,1 136,136" class="nofill"></path>
        <line x1="84" y1="184" x2="116" y2="184" class="solid"></line>
        <line x1="84" y1="184" x2="84" y2="216" class="solid"></line>
        <line x1="116" y1="184" x2="116" y2="216" class="solid"></line>
        <line x1="32" y1="200" x2="84" y2="200" class="solid"></line>
        <line x1="68" y1="200" x2="68" y2="228" class="solid"></line>
        <line x1="116" y1="200" x2="136" y2="200" class="solid"></line>
        <line x1="84" y1="216" x2="116" y2="216" class="solid"></line>
        <path d="M 68,228 A 4,4 0,0,0 72,232" class="nofill"></path>
        <line x1="72" y1="232" x2="128" y2="232" class="solid"></line>
        <polygon points="136,228 128,232 136,236" class="filled"></polygon>
        <line x1="136" y1="232" x2="184" y2="232" class="solid"></line>
        <path d="M 188,228 A 4,4 0,0,1 184,232" class="nofill"></path>
        <line x1="188" y1="8" x2="220" y2="8" class="solid"></line>
        <line x1="188" y1="8" x2="188" y2="40" class="solid"></line>
        <line x1="220" y1="8" x2="220" y2="40" class="solid"></line>
        <line x1="176" y1="24" x2="188" y2="24" class="solid"></line>
        <line x1="220" y1="24" x2="264" y2="24" class="solid"></line>
        <line x1="244" y1="24" x2="244" y2="128" class="solid"></line>
        <line x1="188" y1="40" x2="220" y2="40" class="solid"></line>
        <polygon points="240,140 244,128 248,140" class="filled"></polygon>
        <line x1="244" y1="140" x2="244" y2="196" class="solid"></line>
        <path d="M 56,168 A 4,4 0,0,0 52,172" class="nofill"></path>
        <line x1="52" y1="172" x2="52" y2="200" class="solid"></line>
        <line x1="56" y1="168" x2="120" y2="168" class="solid"></line>
        <polygon points="120,164 128,168 120,172" class="filled"></polygon>
        <line x1="128" y1="168" x2="200" y2="168" class="solid"></line>
        <path d="M 200,168 A 4,4 0,0,1 204,172" class="nofill"></path>
        <line x1="204" y1="172" x2="204" y2="200" class="solid"></line>
        <line x1="176" y1="200" x2="240" y2="200" class="solid"></line>
        <line x1="188" y1="200" x2="188" y2="228" class="solid"></line>
        <path d="M 244,196 A 4,4 0,0,1 240,200" class="nofill"></path>
        <path d="M 48,56 A 4,4 0,0,0 44,60" class="nofill"></path>
        <line x1="44" y1="60" x2="44" y2="88" class="solid"></line>
        <line x1="48" y1="56" x2="96" y2="56" class="solid"></line>
        <polygon points="96,52 104,56 96,60" class="filled"></polygon>
        <line x1="104" y1="56" x2="152" y2="56" class="solid"></line>
        <path d="M 152,56 A 4,4 0,0,1 156,60" class="nofill"></path>
        <line x1="156" y1="60" x2="156" y2="88" class="solid"></line>
    </g>
    <g>
        <path d="M 152,8 A 8,8 0,0,0 146,12" class="nofill"></path>
        <line x1="146" y1="12" x2="144" y2="16" class="solid"></line>
        <line x1="152" y1="8" x2="160" y2="8" class="solid"></line>
        <path d="M 160,8 A 8,8 0,0,1 166,12" class="nofill"></path>
        <line x1="166" y1="12" x2="168" y2="16" class="solid"></line>
        <path d="M 144,16 A 16,16 0,0,0 144,32" class="nofill"></path>
        <path d="M 168,16 A 16,16 0,0,1 168,32" class="nofill"></path>
        <line x1="144" y1="32" x2="146" y2="36" class="solid"></line>
        <path d="M 146,36 A 8,8 0,0,0 152,40" class="nofill"></path>
        <line x1="152" y1="40" x2="160" y2="40" class="solid"></line>
        <line x1="168" y1="32" x2="166" y2="36" class="solid"></line>
        <path d="M 166,36 A 8,8 0,0,1 160,40" class="nofill"></path>
    </g>
    <g>
        <path d="M 96,120 A 8,8 0,0,0 90,124" class="nofill"></path>
        <line x1="90" y1="124" x2="88" y2="128" class="solid"></line>
        <line x1="96" y1="120" x2="104" y2="120" class="solid"></line>
        <path d="M 104,120 A 8,8 0,0,1 110,124" class="nofill"></path>
        <line x1="110" y1="124" x2="112" y2="128" class="solid"></line>
        <path d="M 88,128 A 16,16 0,0,0 88,144" class="nofill"></path>
        <path d="M 112,128 A 16,16 0,0,1 112,144" class="nofill"></path>
        <line x1="88" y1="144" x2="90" y2="148" class="solid"></line>
        <path d="M 90,148 A 8,8 0,0,0 96,152" class="nofill"></path>
        <line x1="96" y1="152" x2="104" y2="152" class="solid"></line>
        <line x1="112" y1="144" x2="110" y2="148" class="solid"></line>
        <path d="M 110,148 A 8,8 0,0,1 104,152" class="nofill"></path>
    </g>
    <g>
        <path d="M 152,184 A 8,8 0,0,0 146,188" class="nofill"></path>
        <line x1="146" y1="188" x2="144" y2="192" class="solid"></line>
        <line x1="152" y1="184" x2="160" y2="184" class="solid"></line>
        <path d="M 160,184 A 8,8 0,0,1 166,188" class="nofill"></path>
        <line x1="166" y1="188" x2="168" y2="192" class="solid"></line>
        <path d="M 144,192 A 16,16 0,0,0 144,208" class="nofill"></path>
        <path d="M 168,192 A 16,16 0,0,1 168,208" class="nofill"></path>
        <line x1="144" y1="208" x2="146" y2="212" class="solid"></line>
        <path d="M 146,212 A 8,8 0,0,0 152,216" class="nofill"></path>
        <line x1="152" y1="216" x2="160" y2="216" class="solid"></line>
        <line x1="168" y1="208" x2="166" y2="212" class="solid"></line>
        <path d="M 166,212 A 8,8 0,0,1 160,216" class="nofill"></path>
    </g>
</svg>